<svg width="654" height="497" viewBox="0 0 654 497" fill="none" xmlns="http://www.w3.org/2000/svg">
<path d="M131.821 320.702C142.061 320.702 150.392 320.926 150.392 321.202C150.392 321.478 142.061 321.702 131.821 321.702C121.581 321.702 113.249 321.478 113.249 321.202C113.249 320.926 121.581 320.702 131.821 320.702Z" fill="#9FA8DA"/>
<path d="M500.686 350.702C510.925 350.702 519.257 358.904 519.257 368.985C519.257 379.066 510.925 387.268 500.686 387.268C490.446 387.268 482.114 379.066 482.114 368.985C482.114 358.904 490.446 350.702 500.686 350.702Z" fill="#9FA8DA"/>
<path d="M53.9583 231.31L124.615 200.394L176.336 90.0732C182.906 76.0558 197.285 67 212.966 67H592.902C609.498 67 623 80.2924 623 96.6311V348.811C623 365.149 609.498 378.442 592.902 378.442H560.757C556.137 406.988 530.962 428.878 500.685 428.878C470.409 428.878 445.234 406.988 440.614 378.442H191.893C187.273 406.988 162.098 428.878 131.822 428.878C101.546 428.878 76.3706 406.988 71.7509 378.442H60.0983C43.502 378.442 30 365.149 30 348.811V267.605C29.9987 251.924 39.4035 237.678 53.9583 231.31ZM175.799 136.349L146.834 198.133H234.924V136.349H175.799ZM500.685 409.964C523.637 409.964 542.311 391.58 542.311 368.985C542.311 346.388 523.637 328.006 500.685 328.006C477.734 328.006 459.06 346.388 459.06 368.985C459.06 391.58 477.734 409.964 500.685 409.964ZM131.821 409.964C154.772 409.964 173.446 391.581 173.446 368.985C173.446 346.388 154.772 328.006 131.821 328.006C108.869 328.006 90.1954 346.388 90.1954 368.985C90.1954 391.58 108.869 409.964 131.821 409.964ZM49.2104 319.179H60.0971C65.402 319.179 69.7029 323.412 69.7029 328.636C69.7029 333.86 65.402 338.093 60.0971 338.093H49.2104V348.811C49.2104 354.72 54.094 359.528 60.0971 359.528H71.7496C76.3694 330.981 101.544 309.092 131.821 309.092C162.097 309.092 187.272 330.981 191.892 359.528H440.614C445.234 330.981 470.409 309.092 500.685 309.092C530.962 309.092 556.137 330.981 560.757 359.528H592.902C598.905 359.528 603.788 354.72 603.788 348.811V338.093H572.409C567.104 338.093 562.803 333.86 562.803 328.636C562.803 323.412 567.104 319.179 572.409 319.179H603.788V96.6311C603.788 90.7213 598.905 85.9135 592.902 85.9135H212.966C204.752 85.9135 197.22 90.6582 193.778 97.9992L184.666 117.436H275.268C286.215 117.436 295.12 126.203 295.12 136.98V177.329C295.12 199.229 277.022 217.047 254.776 217.047H133.858L74.2061 243.147L75.7175 244.05C84.6471 249.388 90.1954 259.093 90.1954 269.378V288.287C90.1954 293.511 85.8945 297.744 80.5895 297.744H49.2104V319.179ZM254.135 136.349V198.133H254.776C266.428 198.133 275.909 188.8 275.909 177.329V136.98C275.909 136.633 275.622 136.349 275.268 136.349H254.135ZM49.2104 278.831H70.9837V269.379C70.9837 265.659 68.9767 262.149 65.7478 260.217L54.7126 253.622C51.2456 257.382 49.2104 262.336 49.2104 267.604V278.831Z" fill="#9FA8DA"/>
<path d="M203.544 319.18H428.962C434.267 319.18 438.568 323.412 438.568 328.636C438.568 333.86 434.267 338.093 428.962 338.093H203.544C198.239 338.093 193.939 333.86 193.939 328.636C193.939 323.412 198.239 319.18 203.544 319.18Z" fill="#9FA8DA"/>
<path d="M469.947 107.349C475.252 107.349 479.553 111.582 479.553 116.805V157.785H491.08V116.805C491.08 111.582 495.38 107.349 500.685 107.349C505.99 107.349 510.291 111.582 510.291 116.805V157.785H521.818V116.805C521.818 111.582 526.119 107.349 531.424 107.349C536.729 107.349 541.03 111.582 541.03 116.805V177.329C541.03 193.667 527.528 206.96 510.932 206.96H510.291V288.287C510.291 293.511 505.99 297.744 500.685 297.744C495.38 297.744 491.08 293.511 491.08 288.287V206.96H490.439C473.843 206.96 460.341 193.667 460.341 177.329V116.805C460.341 111.582 464.642 107.349 469.947 107.349ZM479.553 177.329C479.553 183.238 484.436 188.046 490.439 188.046H510.932C516.935 188.046 521.818 183.238 521.818 177.329V176.698H479.553V177.329Z" fill="#9FA8DA"/>
<path d="M428.962 297.744C423.657 297.744 419.356 293.511 419.356 288.287V247.308H400.072C394.226 247.308 388.704 244.789 384.925 240.397C381.145 236.006 379.53 230.231 380.491 224.552L397.453 124.354C399.121 114.501 407.697 107.349 417.896 107.349C429.295 107.349 438.568 116.478 438.568 127.7V288.287C438.568 293.511 434.267 297.744 428.962 297.744ZM419.356 127.7C419.356 126.908 418.701 126.262 417.843 126.262C417.126 126.262 416.52 126.767 416.402 127.464L399.44 227.661C399.427 227.74 399.391 227.95 399.582 228.172C399.775 228.395 399.991 228.395 400.072 228.395H419.356V127.7Z" fill="#9FA8DA"/>
</svg>
