   <svg viewBox="0 0 172 170" fill="none" xmlns="http://www.w3.org/2000/svg">
                <path
                  d="M118.25 47.8125C117.917 62.0234 107.124 74.0244 107.124 74.0244C107.124 47.5894 86 26.5625 86 26.5625C86 26.5625 85.7151 42.2981 75.0189 58.1613C64.3226 21.1491 32.2231 0 32.2231 0C48.2729 58.1613 26.875 79.3156 26.875 121.614C26.875 146.428 48.1277 170 80.625 170C128.769 170 138.078 152.533 143.056 132.85C149.914 105.751 139.642 74.2475 118.25 47.8125ZM132.633 130.268C129.177 143.916 125.275 159.375 80.625 159.375C53.707 159.375 37.625 140.176 37.625 121.614C37.625 107.397 40.248 95.7259 43.0215 83.3691C46.5475 67.7025 50.1595 51.6641 48.5954 30.4513C65.1719 53.1303 71.0736 83.1778 71.0736 83.1778C71.0736 83.1778 86.5052 61.7631 90.6547 51.8181C93.8314 58.2091 96.75 79.6875 96.75 100.938C96.75 100.938 111.026 89.3138 121.733 71.8356C133.01 91.8213 137.073 112.715 132.633 130.268Z"
                  fill="#324BA6" />
                <path
                  d="M120.572 89.2234L116.003 94.4562C110.343 100.98 104.99 107.164 90.6978 114.272C88.6499 108.205 86.7901 101.527 86.7901 91.3059V82.2268L78.6309 94.86C75.8789 99.1684 73.5999 102.738 70.2029 107.482C65.0483 95.9968 61.404 87.5021 58.6359 79.7937L56.0613 72.6218L53.2663 80.6437C49.7187 90.849 46.3594 100.486 46.3594 125.502C46.3594 126.969 47.558 128.159 49.0469 128.159C50.525 128.159 51.7344 126.969 51.7344 125.502C51.7344 106.33 53.664 96.8362 56.2494 88.6284C59.0444 95.6515 62.5704 103.636 67.1983 113.863L69.0903 118.028L71.8208 114.352C76.282 108.348 78.9373 104.311 81.8451 99.7793C82.6944 107.637 84.6563 113.273 86.602 118.851L87.5803 121.656L90.3 120.387C104.829 113.565 111.628 107.355 117.025 101.394C117.863 111.297 116.541 122.134 113.402 129.832C112.843 131.192 113.515 132.738 114.891 133.285C115.219 133.413 115.563 133.477 115.901 133.477C116.96 133.477 117.971 132.85 118.39 131.814C122.555 121.592 123.808 107.036 121.572 94.7218L120.572 89.2234Z"
                  fill="#324BA6" />
              </svg>