<svg width="210" height="205" viewBox="0 0 210 205" fill="none" xmlns="http://www.w3.org/2000/svg">
<g filter="url(#filter0_d)">
<path d="M105 197C160.781 197 206 152.9 206 98.5C206 44.0999 160.781 0 105 0C49.2192 0 4 44.0999 4 98.5C4 152.9 49.2192 197 105 197Z" fill="#4F5D73"/>
<path d="M71.9455 141.482C71.9455 141.482 78.8833 122.874 67.4721 110.318C66.8496 109.632 66.8551 108.599 67.4905 107.924C71.4295 103.724 78.4242 103.814 88.4727 121.782C91.0969 126.472 96.5693 126.221 101.327 123.573C110.377 118.535 123.437 102.485 137.136 106.394C137.759 106.572 138.24 107.057 138.4 107.669C138.56 108.282 138.376 108.932 137.917 109.38L90.3091 155.809L71.9455 141.482Z" fill="#FBC8C8"/>
<path d="M163.764 103.873C163.764 104.861 162.941 105.664 161.927 105.664H48.0727C47.059 105.664 46.2363 104.861 46.2363 103.873V100.291C46.2363 99.3023 47.059 98.5 48.0727 98.5H161.927C162.941 98.5 163.764 99.3023 163.764 100.291V103.873Z" fill="#F0F1F1"/>
<path d="M105 48.3546C106.914 48.3546 108.735 48.4369 110.509 48.5605V42.9818C110.509 41.9932 109.686 41.1909 108.673 41.1909H101.327C100.314 41.1909 99.491 41.9932 99.491 42.9818V48.5605C101.265 48.4369 103.087 48.3546 105 48.3546Z" fill="white"/>
<path d="M53.5819 98.4999C53.5819 98.4999 51.7455 48.3545 105 48.3545C158.255 48.3545 156.418 98.4999 156.418 98.4999H53.5819Z" fill="#E2E4E5"/>
<path d="M71.9454 141.482L53.5818 155.809H90.3091L71.9454 141.482Z" fill="#3E3E3F"/>
<path d="M105 48.3545C51.7455 48.3545 53.5819 98.4999 53.5819 98.4999H105V48.3545Z" fill="white"/>
<path d="M71.9455 141.482C71.9455 141.482 78.8833 122.874 67.4721 110.318C66.8496 109.632 66.8551 108.599 67.4905 107.924C71.4295 103.724 78.4242 103.814 88.4727 121.782C91.0969 126.472 96.5693 126.221 101.327 123.573C110.377 118.535 123.437 102.485 137.136 106.394C137.759 106.572 138.24 107.057 138.4 107.669C138.56 108.282 138.376 108.932 137.917 109.38L90.3091 155.809L71.9455 141.482Z" fill="#FBC8C8"/>
<path d="M137.917 109.38C138.376 108.932 138.56 108.284 138.4 107.669C138.24 107.055 137.759 106.572 137.136 106.394C123.437 102.487 110.377 118.535 101.327 123.573C96.5693 126.221 91.097 126.472 88.4728 121.782C78.4242 103.814 71.4295 103.724 67.4905 107.924C66.857 108.599 66.8496 109.634 67.4721 110.318C78.8833 122.872 71.9455 141.482 71.9455 141.482L76.9533 145.39L133.835 113.361L137.917 109.38Z" fill="#F7B4B4"/>
</g>
<defs>
<filter id="filter0_d" x="0" y="0" width="210" height="205" filterUnits="userSpaceOnUse" color-interpolation-filters="sRGB">
<feFlood flood-opacity="0" result="BackgroundImageFix"/>
<feColorMatrix in="SourceAlpha" type="matrix" values="0 0 0 0 0 0 0 0 0 0 0 0 0 0 0 0 0 0 127 0"/>
<feOffset dy="4"/>
<feGaussianBlur stdDeviation="2"/>
<feColorMatrix type="matrix" values="0 0 0 0 0 0 0 0 0 0 0 0 0 0 0 0 0 0 0.25 0"/>
<feBlend mode="normal" in2="BackgroundImageFix" result="effect1_dropShadow"/>
<feBlend mode="normal" in="SourceGraphic" in2="effect1_dropShadow" result="shape"/>
</filter>
</defs>
</svg>
